PERFORMER "Steve Aoki"
TITLE "Essential Mix (2008-08-02) [TMB]"
FILE "2008-08-02 - EM - Steve Aoki.mp3" MP3
  TRACK 01 AUDIO
    PERFORMER "Essential Mix"
    TITLE "Intro"
    INDEX 01 00:00:00
  TRACK 02 AUDIO
    PERFORMER "Larry Tee"
    TITLE "Carmina Burana vs. I Love U (Bart B More Remix)"
    INDEX 01 00:53:00
  TRACK 03 AUDIO
    PERFORMER "Les Petit Pilous"
    TITLE "Wake Up"
    INDEX 01 08:21:70
  TRACK 04 AUDIO
    PERFORMER "MSTRKRFT"
    TITLE "Bounce (Bloody Beetroots 90's Remix)"
    INDEX 01 09:37:00
  TRACK 05 AUDIO
    PERFORMER "MSTRKRFT"
    TITLE "Bounce (A Trak Remix)"
    INDEX 01 13:00:00
  TRACK 06 AUDIO
    PERFORMER "Herve"
    TITLE "Cheap Thrills (Armand Van Helden Remix)"
    INDEX 01 13:59:00
  TRACK 07 AUDIO
    PERFORMER "Fake Blood"
    TITLE "Mars"
    INDEX 01 18:40:00
  TRACK 08 AUDIO
    PERFORMER "Weird Science"
    TITLE "Haus of Cards"
    INDEX 01 21:22:00
  TRACK 09 AUDIO
    PERFORMER "Machines Don't Care"
    TITLE "Afro Jacker"
    INDEX 01 26:03:00
  TRACK 10 AUDIO
    PERFORMER "Busy P"
    TITLE "To Protect and Entertain (Crookers Dub 'N' Vocalz Remix)"
    INDEX 01 29:11:00
  TRACK 11 AUDIO
    PERFORMER "Basement Jaxx"
    TITLE "Hey U (Switch and Sinden Remix)"
    INDEX 01 33:07:50
  TRACK 12 AUDIO
    PERFORMER "Proxy"
    TITLE "Raven"
    INDEX 01 35:59:00
  TRACK 13 AUDIO
    PERFORMER "Junkie Xl & Steve Aoki"
    TITLE "1967 Poem (Club Mix)"
    INDEX 01 38:10:00
  TRACK 14 AUDIO
    PERFORMER "Steve Aoki"
    TITLE "Dead Meat"
    INDEX 01 42:27:00
  TRACK 15 AUDIO
    PERFORMER "The Fashion"
    TITLE "Solo Impala (Weird Science Remix)"
    INDEX 01 44:50:70
  TRACK 16 AUDIO
    PERFORMER "Duran Duran"
    TITLE "Skin Dive feat. Timbaland (Steve Aoki Keyboard Club Dub Remix)"
    INDEX 01 48:56:50
  TRACK 17 AUDIO
    PERFORMER "Metro Station"
    TITLE "Control (Weird Science Remix)"
    INDEX 01 53:26:00
  TRACK 18 AUDIO
    PERFORMER "Shitdisco"
    TITLE "Ok (Yuksek Remix)"
    INDEX 01 57:56:00
  TRACK 19 AUDIO
    PERFORMER "The Bloody Beetroots"
    TITLE "Dimmakmmunication"
    INDEX 01 61:08:70
  TRACK 20 AUDIO
    PERFORMER "MSTRKRFT"
    TITLE "VU VU VU"
    INDEX 01 64:30:00
  TRACK 21 AUDIO
    PERFORMER "Lazaro Casanova"
    TITLE "Venganza (Felix Cartal Remix)"
    INDEX 01 67:28:00
  TRACK 22 AUDIO
    PERFORMER "Don Rimini"
    TITLE "Let Me Back Up (Crookers Remix)"
    INDEX 01 75:40:70
  TRACK 23 AUDIO
    PERFORMER "Bugo"
    TITLE "La Mano Mia (Cecile and The Bloody Beetroots Remix)"
    INDEX 01 79:49:70
  TRACK 24 AUDIO
    PERFORMER "Eric Prydz"
    TITLE "Pjanoo"
    INDEX 01 83:29:00
  TRACK 25 AUDIO
    PERFORMER "The Presets"
    TITLE "My People (D.I.M. Remix)"
    INDEX 01 89:25:00
  TRACK 26 AUDIO
    PERFORMER "Felix Cartal"
    TITLE "Montreal Dreams (Aoki Edit)"
    INDEX 01 94:50:00
  TRACK 27 AUDIO
    PERFORMER "S.P.A."
    TITLE "Pets Dance (Aoki Edit)"
    INDEX 01 98:42:70
  TRACK 28 AUDIO
    PERFORMER "Debonaire Samir"
    TITLE "Samir's Theme (Instrumental)"
    INDEX 01 100:54:00
  TRACK 29 AUDIO
    PERFORMER "Daft Punk"
    TITLE "One More Time (Aoki Edit)"
    INDEX 01 102:00:00
  TRACK 30 AUDIO
    PERFORMER "Daft Punk"
    TITLE "One More Time (House Moguls JFK Edit)"
    INDEX 01 104:51:00
  TRACK 31 AUDIO
    PERFORMER "Jean Elan"
    TITLE "Where's Your Head At (Klaas Remix)"
    INDEX 01 108:14:00
  TRACK 32 AUDIO
    PERFORMER "The Who"
    TITLE "Baba O'Reily (Sebastien Remix)"
    INDEX 01 112:27:00
  TRACK 33 AUDIO
    PERFORMER "MGMT"
    TITLE "Kids (Aoki Intro Edit)"
    INDEX 01 114:19:00